<svg xmlns="http://www.w3.org/2000/svg" fill="none" viewBox="0 0 143 34"><path fill="#fff" d="M.88 6.82V33h3.75V14.04h.25l7.72 18.92h3.12l7.72-18.9h.24V33h3.76V6.82h-4.8l-8.33 20.35h-.3L5.67 6.82H.87zM42 33.4c4.3 0 7.32-2.11 8.2-5.3l-3.63-.66c-.69 1.85-2.35 2.8-4.52 2.8-3.28 0-5.47-2.12-5.58-5.9h13.96v-1.36c0-7.1-4.24-9.87-8.69-9.87-5.47 0-9.08 4.17-9.08 10.2 0 6.1 3.56 10.09 9.35 10.09zM36.5 21.47c.15-2.79 2.17-5.2 5.28-5.2 2.96 0 4.9 2.2 4.92 5.2h-10.2zM69.39 18.16c-.8-3.06-3.18-5.05-7.43-5.05-4.43 0-7.58 2.34-7.58 5.81 0 2.8 1.69 4.65 5.37 5.46l3.32.73c1.9.42 2.78 1.27 2.78 2.5 0 1.52-1.63 2.7-4.13 2.7-2.29 0-3.76-.98-4.22-2.9l-3.7.55c.65 3.48 3.53 5.44 7.94 5.44 4.75 0 8.03-2.52 8.03-6.08 0-2.77-1.76-4.48-5.37-5.31l-3.12-.72c-2.16-.51-3.09-1.24-3.08-2.57 0-1.5 1.63-2.58 3.8-2.58 2.38 0 3.48 1.31 3.93 2.63l3.46-.61zM83.14 13.36h-4.02v-4.7h-3.83v4.7h-2.87v3.07h2.87v11.6c-.01 3.56 2.71 5.29 5.73 5.23a7.32 7.32 0 002.48-.41l-.69-3.16c-.26.05-.73.17-1.34.17-1.24 0-2.35-.41-2.35-2.63v-10.8h4.02v-3.07zM95.43 33.4c5.54 0 9.15-4.06 9.15-10.13 0-6.11-3.61-10.16-9.15-10.16-5.53 0-9.15 4.05-9.15 10.16 0 6.07 3.62 10.13 9.15 10.13zm.01-3.21c-3.61 0-5.3-3.16-5.3-6.93 0-3.76 1.69-6.96 5.3-6.96 3.6 0 5.28 3.2 5.28 6.96 0 3.77-1.68 6.93-5.28 6.93zM108.06 9h1.05V5.6h1.91l.22-.01L113.08 9h1.23l-1.97-3.6c1.11-.38 1.63-1.3 1.63-2.45 0-1.54-.92-2.68-2.96-2.68h-2.95V9zm1.05-4.36V1.2h1.86c1.42 0 1.96.7 1.96 1.74 0 1.05-.54 1.69-1.94 1.69h-1.88zM119.72 6.32a1.7 1.7 0 01-1.69 1.8c-.83 0-1.43-.62-1.43-1.57v-4.1h-1v4.16c0 1.67.88 2.48 2.11 2.48.99 0 1.64-.53 1.94-1.2h.07V9h1V2.45h-1v3.87zM127.2 3.92c-.31-.93-1.02-1.55-2.31-1.55-1.38 0-2.4.78-2.4 1.9 0 .9.53 1.5 1.73 1.78l1.1.26c.65.15.97.47.97.92 0 .56-.6 1.02-1.54 1.02-.82 0-1.34-.35-1.52-1.06l-.95.24c.23 1.11 1.15 1.7 2.49 1.7 1.52 0 2.56-.82 2.56-1.95 0-.92-.58-1.5-1.74-1.78l-.98-.24c-.77-.19-1.12-.45-1.12-.95 0-.56.6-.97 1.4-.97.88 0 1.24.48 1.41.94l.9-.26zM133.47 3.92c-.31-.93-1.02-1.55-2.31-1.55-1.38 0-2.4.78-2.4 1.9 0 .9.53 1.5 1.73 1.78l1.1.26c.65.15.96.47.96.92 0 .56-.6 1.02-1.53 1.02-.82 0-1.34-.35-1.52-1.06l-.95.24c.23 1.11 1.15 1.7 2.49 1.7 1.52 0 2.55-.82 2.55-1.95 0-.92-.57-1.5-1.73-1.78l-.98-.24c-.77-.19-1.12-.45-1.12-.95 0-.56.6-.97 1.4-.97.87 0 1.24.48 1.41.94l.9-.26zM135.1 9h1.01V2.45h-1V9zm.52-7.64c.4 0 .72-.3.72-.68a.7.7 0 00-.72-.68.7.7 0 00-.72.68c0 .38.33.68.72.68zM139.88 9.15c1.14 0 1.74-.61 1.94-1.04h.06V9h1V4.69c0-2.08-1.58-2.32-2.42-2.32-.99 0-2.11.34-2.62 1.53l.95.34c.22-.47.75-.98 1.7-.98.93 0 1.39.49 1.39 1.33v.03c0 .49-.5.44-1.7.6-1.2.15-2.53.42-2.53 1.92 0 1.28.99 2.01 2.23 2.01zm.16-.9c-.8 0-1.38-.36-1.38-1.06 0-.76.7-1 1.48-1.1.42-.06 1.57-.18 1.74-.38v.92c0 .82-.65 1.62-1.84 1.62z"/></svg>